<svg xmlns="http://www.w3.org/2000/svg" width="126.001" height="77.987" viewBox="0 0 126.001 77.987">
  <g id="_37_rating" data-name="37 rating" transform="translate(-25.469 -3.5)">
    <path id="Path_13246" data-name="Path 13246" d="M68.119,3.5H26.656A11.486,11.486,0,0,0,15.17,14.986V51.663A11.486,11.486,0,0,0,26.656,63.149h4.269L45.933,80.818A1.915,1.915,0,0,0,49.3,79.574V63.149H68.119A11.486,11.486,0,0,0,79.6,51.663V14.986A11.486,11.486,0,0,0,68.119,3.5Zm7.657,48.163a7.657,7.657,0,0,1-7.657,7.657H47.387a1.914,1.914,0,0,0-1.914,1.914V74.367L33.26,59.99a1.935,1.935,0,0,0-1.455-.67H26.656A7.657,7.657,0,0,1,19,51.663V14.986a7.657,7.657,0,0,1,7.657-7.657H68.119a7.657,7.657,0,0,1,7.657,7.657Z" transform="translate(10.299 0)" fill="#b9db6b"/>
    <path id="Path_13247" data-name="Path 13247" d="M67.81,11.664A1.914,1.914,0,0,1,65.9,13.579H21.254a1.914,1.914,0,0,1,0-3.829H65.9A1.914,1.914,0,0,1,67.81,11.664Z" transform="translate(14.112 5.714)" fill="#b9db6b"/>
    <path id="Path_13248" data-name="Path 13248" d="M67.81,15.834A1.914,1.914,0,0,1,65.9,17.749H21.254a1.914,1.914,0,0,1,0-3.829H65.9a1.9,1.9,0,0,1,1.914,1.914Z" transform="translate(14.112 9.527)" fill="#b9db6b"/>
    <path id="Path_13249" data-name="Path 13249" d="M67.81,19.994A1.914,1.914,0,0,1,65.9,21.909H21.254a1.914,1.914,0,0,1,0-3.829H65.9A1.914,1.914,0,0,1,67.81,19.994Z" transform="translate(14.112 13.33)" fill="#b9db6b"/>
    <path id="Path_13250" data-name="Path 13250" d="M60.194,24.164a1.914,1.914,0,0,1-1.914,1.914h-28.7a1.914,1.914,0,0,1,0-3.829h28.7a1.9,1.9,0,0,1,1.914,1.914Z" transform="translate(21.728 17.143)" fill="#b9db6b"/>
    <path id="Path_13251" data-name="Path 13251" d="M60.194,28.324a1.914,1.914,0,0,1-1.914,1.914h-28.7a1.914,1.914,0,0,1,0-3.829h28.7A1.914,1.914,0,0,1,60.194,28.324Z" transform="translate(21.728 20.946)" fill="#b9db6b"/>
    <path id="Path_13252" data-name="Path 13252" d="M32.066,51.4a1.932,1.932,0,0,0-1.819-1.321H22.341l-2.45-7.523a1.914,1.914,0,0,0-3.637,0L13.8,50.082H5.9a1.914,1.914,0,0,0-1.129,3.465L11.162,58.2,8.731,65.7a1.917,1.917,0,0,0,2.948,2.144l6.394-4.652,6.394,4.652a1.914,1.914,0,0,0,2.948-2.125L24.964,58.2l6.413-4.652A1.937,1.937,0,0,0,32.066,51.4Zm-11.16,6.643L21.958,61.3,19.2,59.29a1.9,1.9,0,0,0-2.259,0L14.186,61.3l1.053-3.254a1.9,1.9,0,0,0-.689-2.125l-2.757-2.01H15.2A1.932,1.932,0,0,0,17.02,52.59l1.053-3.254,1.053,3.254a1.914,1.914,0,0,0,1.819,1.321h3.407l-2.757,2.01A1.87,1.87,0,0,0,20.906,58.045Z" transform="translate(119.312 -14.233)" fill="#b9db6b"/>
    <path id="Path_13253" data-name="Path 13253" d="M52.726,56.563a1.914,1.914,0,0,0-1.819-1.321H43l-2.45-7.523a1.914,1.914,0,0,0-3.637,0l-2.45,7.523H26.558a1.914,1.914,0,0,0-1.129,3.465l6.413,4.652-2.45,7.523a1.914,1.914,0,0,0,2.948,2.144l6.394-4.652,6.394,4.652a1.914,1.914,0,0,0,2.948-2.144l-2.45-7.523,6.413-4.652A1.914,1.914,0,0,0,52.726,56.563Zm-11.16,6.662,1.053,3.235-2.757-2.01a1.935,1.935,0,0,0-2.259,0l-2.757,2.01L35.9,63.224a1.9,1.9,0,0,0-.689-2.144l-2.757-2.01h3.407A1.914,1.914,0,0,0,37.68,57.75l1.053-3.235,1.053,3.235A1.914,1.914,0,0,0,41.6,59.07h3.407l-2.757,2.01a1.9,1.9,0,0,0-.689,2.144Z" transform="translate(70.467 -3.181)" fill="#b9db6b"/>
    <path id="Path_13254" data-name="Path 13254" d="M73.386,51.4a1.9,1.9,0,0,0-1.819-1.321H63.661l-2.45-7.523a1.914,1.914,0,0,0-3.637,0l-2.45,7.523H47.218a1.914,1.914,0,0,0-1.129,3.465L52.5,58.2l-2.45,7.523A1.914,1.914,0,0,0,53,67.846l6.394-4.652,6.394,4.652a1.934,1.934,0,0,0,1.129.364,1.851,1.851,0,0,0,1.129-.364,1.889,1.889,0,0,0,.689-2.144L66.3,58.2,72.7,53.547A1.914,1.914,0,0,0,73.386,51.4Zm-11.16,6.643L63.278,61.3l-2.757-2.01a1.891,1.891,0,0,0-1.129-.364,1.933,1.933,0,0,0-1.129.364L55.506,61.3l1.053-3.254a1.87,1.87,0,0,0-.689-2.125l-2.757-2.01h3.407A1.914,1.914,0,0,0,58.34,52.59l1.053-3.254,1.053,3.254a1.932,1.932,0,0,0,1.819,1.321h3.407l-2.757,2.01a1.9,1.9,0,0,0-.689,2.125Z" transform="translate(49.807 -34.885)" fill="#b9db6b"/>
  </g>
</svg>
