<svg xmlns="http://www.w3.org/2000/svg" width="83.176" height="83.176" viewBox="0 0 83.176 83.176">
  <g id="download-square-svgrepo-com" transform="translate(0.5 0.5)">
    <path id="Path_13243" data-name="Path 13243" d="M20.726,7V34.362m0,0L32.453,22.635M20.726,34.362,9,22.635" transform="translate(20.362 14.544)" fill="none" stroke="#b9db6b" stroke-linecap="round" stroke-linejoin="round" stroke-width="5"/>
    <path id="Path_13244" data-name="Path 13244" d="M39.27,17H8" transform="translate(17.453 43.632)" fill="none" stroke="#b9db6b" stroke-linecap="round" stroke-width="5"/>
    <path id="Path_13245" data-name="Path 13245" d="M80.176,41.088c0,18.426,0,27.639-5.724,33.363s-14.937,5.724-33.363,5.724-27.639,0-33.364-5.724S2,59.514,2,41.088,2,13.449,7.724,7.724,22.662,2,41.088,2,68.727,2,74.451,7.724c3.806,3.806,5.082,9.155,5.509,17.728" transform="translate(0 0)" fill="none" stroke="#b9db6b" stroke-linecap="round" stroke-width="5"/>
  </g>
</svg>
