<svg xmlns="http://www.w3.org/2000/svg" width="49.273" height="38.676" viewBox="0 0 49.273 38.676">
  <g id="email-8-svgrepo-com" transform="translate(0 -55.062)">
    <path id="Path_13325" data-name="Path 13325" d="M49.146,60.568a6.816,6.816,0,0,0-1.411-2.989,5.876,5.876,0,0,0-.464-.514,6.82,6.82,0,0,0-4.832-2H6.835a6.829,6.829,0,0,0-4.832,2,6,6,0,0,0-.464.514A6.735,6.735,0,0,0,.133,60.568,6.61,6.61,0,0,0,0,61.9V86.9a6.8,6.8,0,0,0,.566,2.714A6.7,6.7,0,0,0,2,91.734c.153.153.3.293.471.432a6.829,6.829,0,0,0,4.361,1.571h35.6A6.786,6.786,0,0,0,46.8,92.161a5.9,5.9,0,0,0,.471-.426,6.84,6.84,0,0,0,1.443-2.117v-.006a6.763,6.763,0,0,0,.559-2.708V61.9A7.024,7.024,0,0,0,49.146,60.568Zm-44.67-1.03a3.3,3.3,0,0,1,2.359-.979h35.6A3.284,3.284,0,0,1,45.1,59.888L26.436,76.151a2.739,2.739,0,0,1-3.6,0L4.184,59.881A2.523,2.523,0,0,1,4.476,59.538ZM3.5,86.9V63.5L17,75.28,3.5,87.049A1,1,0,0,1,3.5,86.9ZM42.438,90.24H6.835A3.292,3.292,0,0,1,5.182,89.8L19.423,77.391l1.33,1.157a5.917,5.917,0,0,0,7.775,0l1.329-1.157L44.092,89.8A3.3,3.3,0,0,1,42.438,90.24ZM45.777,86.9a1.042,1.042,0,0,1-.007.146l-13.5-11.761,13.5-11.781Z" fill="#d0d0d0"/>
  </g>
</svg>
