<svg xmlns="http://www.w3.org/2000/svg" width="125.903" height="164.81" viewBox="0 0 125.903 164.81">
  <g id="logo" transform="translate(0)">
    <g id="Group_28866" data-name="Group 28866" transform="translate(12.154 134.286)">
      <g id="Group_28865" data-name="Group 28865" transform="translate(0 0)">
        <path id="Path_526" data-name="Path 526" d="M49.477,31.372H42.5V7.7h6.229q8.97,0,8.97,5.98a5.4,5.4,0,0,1-2.866,5.108,5.6,5.6,0,0,1,3.738,5.731C58.447,29.129,55.457,31.372,49.477,31.372ZM45.864,10.815v7.226H50.1c2.616,0,3.862-1.246,3.862-3.738a3.007,3.007,0,0,0-1.37-2.741,8.389,8.389,0,0,0-3.987-.748Zm0,9.967v7.6h3.364a10.165,10.165,0,0,0,4.361-.748,3.013,3.013,0,0,0,1.5-2.99c0-2.616-1.62-3.862-4.984-3.862Z" transform="translate(-42.5 -7.202)"/>
        <path id="Path_527" data-name="Path 527" d="M59.818,11.411a2.368,2.368,0,0,1-1.62-.623,1.986,1.986,0,0,1-.5-1.5,2.063,2.063,0,0,1,.623-1.5,2.492,2.492,0,0,1,2.99,0,1.986,1.986,0,0,1,.5,1.5,1.986,1.986,0,0,1-.5,1.5A1.677,1.677,0,0,1,59.818,11.411Zm1.62,2.99V31.47H58.074V14.4Z" transform="translate(-38.763 -7.3)"/>
        <path id="Path_528" data-name="Path 528" d="M73.19,30.98a9.774,9.774,0,0,1-2.741.249c-3.613,0-5.482-1.993-5.482-5.98V16.528H62.6V13.787h2.367V9.925L68.331,9.8v3.987h4.236v2.741H68.331v8.721c0,2.118.872,3.115,2.616,3.115a9.683,9.683,0,0,0,1.993-.249Z" transform="translate(-37.558 -6.685)"/>
        <path id="Path_529" data-name="Path 529" d="M85.6,29.021a14.472,14.472,0,0,1-6.977,1.5,8.444,8.444,0,0,1-4.984-1.37A4.852,4.852,0,0,1,71.9,25.408a4.362,4.362,0,0,1,1.869-3.862,8.307,8.307,0,0,1,4.859-1.37,16.913,16.913,0,0,1,3.613.374v-1.37c0-2.367-1.37-3.613-3.987-3.613a10.679,10.679,0,0,0-4.485.872L73.146,13.7a14.834,14.834,0,0,1,5.482-1,7.569,7.569,0,0,1,5.233,1.744A6.715,6.715,0,0,1,85.6,19.428v9.593Zm-6.6-1a5.935,5.935,0,0,0,3.239-.748V22.916a14.13,14.13,0,0,0-3.115-.374c-2.367,0-3.613,1-3.613,2.866C75.388,27.152,76.634,28.024,79,28.024Z" transform="translate(-35.271 -5.972)"/>
        <path id="Path_530" data-name="Path 530" d="M100.351,36.521H96.987V29.544a6.005,6.005,0,0,1-3.738,1,7.17,7.17,0,0,1-5.731-2.367A9.531,9.531,0,0,1,85.4,21.82a9.062,9.062,0,0,1,2.367-6.728A8.251,8.251,0,0,1,94.121,12.6a14.87,14.87,0,0,1,6.354,1.37v22.55ZM88.764,21.695a6.522,6.522,0,0,0,1.37,4.361,4.412,4.412,0,0,0,3.738,1.62,5.166,5.166,0,0,0,3.115-1V16.088a7.725,7.725,0,0,0-2.866-.5,4.659,4.659,0,0,0-3.862,1.62A6.092,6.092,0,0,0,88.764,21.695Z" transform="translate(-31.952 -5.997)"/>
        <path id="Path_531" data-name="Path 531" d="M113.4,29.021a14.472,14.472,0,0,1-6.977,1.5,8.444,8.444,0,0,1-4.984-1.37A4.852,4.852,0,0,1,99.7,25.408a4.362,4.362,0,0,1,1.869-3.862,8.307,8.307,0,0,1,4.859-1.37,16.913,16.913,0,0,1,3.613.374v-1.37c0-2.367-1.37-3.613-3.987-3.613a10.678,10.678,0,0,0-4.485.872l-.623-2.741a14.834,14.834,0,0,1,5.482-1,7.569,7.569,0,0,1,5.233,1.744,6.715,6.715,0,0,1,1.744,4.984S113.4,29.021,113.4,29.021Zm-6.6-1a5.935,5.935,0,0,0,3.239-.748V22.916a14.13,14.13,0,0,0-3.115-.374c-2.367,0-3.613,1-3.613,2.866C103.313,27.152,104.434,28.024,106.8,28.024Z" transform="translate(-28.436 -5.972)"/>
        <path id="Path_532" data-name="Path 532" d="M122.99,30.98a10.377,10.377,0,0,1-2.741.374c-3.613,0-5.482-1.993-5.482-5.98V16.652H112.4V13.787h2.367V9.925l3.364-.125v3.987h4.236v2.741h-4.236v8.721c0,2.118.872,3.115,2.616,3.115a9.683,9.683,0,0,0,1.993-.249Z" transform="translate(-25.313 -6.685)"/>
        <path id="Path_533" data-name="Path 533" d="M131.467,29.172c-2.367,4.111-5.233,6.479-8.846,7.226L122,33.408a8.342,8.342,0,0,0,5.731-3.987,36.766,36.766,0,0,1-4.236-7.724,36.186,36.186,0,0,1-1.993-8.6h3.488a29.587,29.587,0,0,0,1.5,7.226A30.761,30.761,0,0,0,129.6,26.8a44.109,44.109,0,0,0,2.616-6.479A37.768,37.768,0,0,0,133.46,13.1h3.364A42.21,42.21,0,0,1,131.467,29.172Z" transform="translate(-23.076 -5.874)"/>
      </g>
    </g>
    <path id="Path_534" data-name="Path 534" d="M101.285,19.4H4.476C3.488,22.034,3.488,22.034,2.5,25A45.671,45.671,0,0,1,17.647,59.243a43.357,43.357,0,0,1-1.317,11.2L21.6,77.354H86.468a20.518,20.518,0,0,0,20.416-20.416V25ZM94.041,37.84H86.8a4.939,4.939,0,1,1,0-9.878h7.244a4.939,4.939,0,1,1,0,9.878Z" transform="translate(5.732 44.481)" fill="#800a8c"/>
    <path id="Path_535" data-name="Path 535" d="M86.6,0H2.634C1.317,3.293,1.317,3.622,0,6.915a45.538,45.538,0,0,1,13.83,32.6,43.357,43.357,0,0,1-1.317,11.2l5.269,7.244H72.113A20.518,20.518,0,0,0,92.529,37.538V5.6ZM79.358,18.111H72.113a5.064,5.064,0,0,1-4.939-4.939,5.064,5.064,0,0,1,4.939-4.939h7.244A5.064,5.064,0,0,1,84.3,13.171,5.064,5.064,0,0,1,79.358,18.111Z" transform="translate(0)" fill="#ffc30a"/>
  </g>
</svg>
