<svg xmlns="http://www.w3.org/2000/svg" xmlns:xlink="http://www.w3.org/1999/xlink" width="149" height="155" viewBox="0 0 149 155">
  <defs>
    <clipPath id="clip-path">
      <rect id="crop" width="149" height="155" transform="translate(-0.441 -0.317)" fill="none"/>
    </clipPath>
  </defs>
  <g id="logo" transform="translate(0.441 0.317)" clip-path="url(#clip-path)">
    <g id="Group_29754" data-name="Group 29754" transform="translate(-0.355 -0.34)">
      <g id="Group_29753" data-name="Group 29753">
        <path id="Path_13196" data-name="Path 13196" d="M118.336,0H24.883L0,12.193V24.464H24.883V91.8c.044,16.912,14,30.6,31.2,30.6h62.248c17.189,0,31.124-13.7,31.124-30.6V30.6C149.459,13.7,135.525,0,118.336,0Zm18.642,89.125a21.185,21.185,0,0,1-21.363,21H58.728a21.185,21.185,0,0,1-21.363-21V33.2a21.185,21.185,0,0,1,21.363-21h56.888a21.185,21.185,0,0,1,21.363,21Z" fill="#0a537f"/>
        <path id="Path_13197" data-name="Path 13197" d="M72.921,63.083A4.49,4.49,0,0,0,67.4,60.022l-.066.018A14.59,14.59,0,0,1,49.48,49.953c-.01-.04-.021-.081-.032-.12a4.41,4.41,0,0,0-5.409-3.026,4.476,4.476,0,0,0-3.2,5.428A23.3,23.3,0,0,0,63.482,69.3a22.936,22.936,0,0,0,6.241-.787,4.477,4.477,0,0,0,3.2-5.428Z" transform="translate(23.33 26.743)" fill="#0a537f"/>
        <path id="Path_13198" data-name="Path 13198" d="M68.671,23.35a9.263,9.263,0,0,0-9.321,9.2v6.057a9.322,9.322,0,0,0,18.642,0V32.553A9.263,9.263,0,0,0,68.671,23.35Z" transform="translate(34.023 13.386)" fill="#0a537f"/>
        <path id="Path_13199" data-name="Path 13199" d="M48.888,47.814a9.263,9.263,0,0,0,9.321-9.2V32.553a9.322,9.322,0,0,0-18.642,0v6.057A9.263,9.263,0,0,0,48.888,47.814Z" transform="translate(22.682 13.386)" fill="#0a537f"/>
      </g>
      <path id="Path_13200" data-name="Path 13200" d="M140.393,86.051v20.531h-3.6v-1.259a11.268,11.268,0,0,1-2.32,1.259,9.266,9.266,0,0,1-2.641.393,8.131,8.131,0,0,1-2.8-.472,7.4,7.4,0,0,1-2.32-1.337,9.543,9.543,0,0,1-2.24-2.832,8.752,8.752,0,0,1-.72-3.54,7.75,7.75,0,0,1,.72-3.3,7.866,7.866,0,0,1,1.92-2.753,8.028,8.028,0,0,1,2.48-1.495,7.634,7.634,0,0,1,2.96-.551,9.426,9.426,0,0,1,2.72.393,9,9,0,0,1,2.24,1.258V86.051Zm-11.522,9.99a4.508,4.508,0,0,0,0,6.45,4.927,4.927,0,0,0,3.44,1.337,4.031,4.031,0,0,0,3.041-1.337,4.364,4.364,0,0,0,1.28-3.225,4.753,4.753,0,0,0-1.28-3.3,4.535,4.535,0,0,0-6.335-.143c-.05.047-.1.095-.146.143ZM16.3,93.052a12.639,12.639,0,0,1,1.36-2.753,10.979,10.979,0,0,1,3.92-3.461,10.79,10.79,0,0,1,5.04-1.18,9.583,9.583,0,0,1,4,.787,10.418,10.418,0,0,1,3.52,2.281,8.562,8.562,0,0,1,2.32,3.461,10.642,10.642,0,0,1-2.16,11.721,11.45,11.45,0,0,1-3.52,2.36,10.956,10.956,0,0,1-4.161.865,11.131,11.131,0,0,1-4.321-.787,10.478,10.478,0,0,1-3.44-2.438,10.757,10.757,0,0,1-2.24-3.461,11.245,11.245,0,0,1-.8-4.012A10.838,10.838,0,0,1,16.3,93.052Zm3.84,3.068a7.739,7.739,0,0,0,.4,2.438,7.854,7.854,0,0,0,1.36,2.124,5.839,5.839,0,0,0,2.16,1.573,5.762,5.762,0,0,0,2.56.551,6.051,6.051,0,0,0,4.561-1.888,6.779,6.779,0,0,0,1.84-4.877,6.316,6.316,0,0,0-1.84-4.484A6.054,6.054,0,0,0,26.7,89.749a6.371,6.371,0,0,0-6.561,6.293ZM39.82,91.086h3.6v1.731a5.489,5.489,0,0,1,1.76-1.573,5.929,5.929,0,0,1,2.4-.472,7.469,7.469,0,0,1,3.04.63A5.8,5.8,0,0,1,52.7,93.289a11.269,11.269,0,0,1,.8,1.966,27.66,27.66,0,0,1,0,3.146v7.866H49.9V99.424a7.75,7.75,0,0,0-.8-4.326,2.739,2.739,0,0,0-2.48-1.1,2.9,2.9,0,0,0-2.641,1.259,8.3,8.3,0,0,0-.8,4.405v6.608H39.82Zm54.487,1.023h-4.64a5.42,5.42,0,0,0-2.08-1.731,6.331,6.331,0,0,0-2.8-.629,6.26,6.26,0,0,0-5.841,4.012A7.065,7.065,0,0,0,80.225,101a6.293,6.293,0,0,0,4.56,1.888,7.224,7.224,0,0,0,2.72-.551,4.622,4.622,0,0,0,2-1.652h5.041a11.134,11.134,0,0,1-3.92,4.72,10.536,10.536,0,0,1-5.841,1.573,11.455,11.455,0,0,1-4.321-.865,10.462,10.462,0,0,1-3.52-2.675,8.944,8.944,0,0,1-2.08-3.3,12.733,12.733,0,0,1-1.2-4.091,10.387,10.387,0,0,1,.8-4.09,11.242,11.242,0,0,1,2.4-3.461A10.9,10.9,0,0,1,84.306,85.5a10.782,10.782,0,0,1,5.841,1.573A11.213,11.213,0,0,1,94.307,92.109Zm6.561,3.461a4.137,4.137,0,0,0-1.36,3.147,4.757,4.757,0,0,0,1.36,3.3,4.683,4.683,0,0,0,3.2,1.259,4.364,4.364,0,0,0,4.4-4.326c0-.027,0-.053,0-.08a4.365,4.365,0,0,0-1.28-3.225,4.291,4.291,0,0,0-5.988-.327,4.128,4.128,0,0,0-.333.327Zm-2.8-2.517a8.962,8.962,0,0,1,2.56-1.809,8.7,8.7,0,0,1,3.28-.551,7.065,7.065,0,0,1,2.96.551,5.174,5.174,0,0,1,2,1.731V91.086h3.52v15.732h-3.52v-2.124a3.421,3.421,0,0,1-1.84,1.652,6.986,6.986,0,0,1-3.041.63,8.073,8.073,0,0,1-5.841-2.36,8.186,8.186,0,0,1-1.76-8.968A9.024,9.024,0,0,1,98.068,93.052Zm20.883,0a6.126,6.126,0,0,1,1.76-1.495,5.433,5.433,0,0,1,2.24-.472v3.382a4.121,4.121,0,0,0-2.96,1.1,4.971,4.971,0,0,0-.88,3.3v7.866h-3.6V91.007h3.441ZM59.823,97.3h8.641a4.09,4.09,0,0,0-1.6-2.281,4.534,4.534,0,0,0-2.8-.865,4.622,4.622,0,0,0-4.241,2.911Zm1.04-5.742a7.545,7.545,0,0,1,3.2-.708,8.113,8.113,0,0,1,3.84.944,7.961,7.961,0,0,1,2.96,2.517,7.812,7.812,0,0,1,1.2,2.281,13.856,13.856,0,0,1,0,2.832v.786H59.743a3.522,3.522,0,0,0,1.36,2.6,4.286,4.286,0,0,0,3.04,1.023,4.153,4.153,0,0,0,3.761-1.967h3.92a7.882,7.882,0,0,1-3.04,3.933,7.447,7.447,0,0,1-4.56,1.416,9.016,9.016,0,0,1-3.28-.629,8.007,8.007,0,0,1-2.641-1.809,9.347,9.347,0,0,1-1.76-2.6,8.289,8.289,0,0,1-.56-3.068,7.753,7.753,0,0,1,.56-3.068,6.592,6.592,0,0,1,1.68-2.6,6.777,6.777,0,0,1,2.641-2.124Z" transform="translate(9.066 49.013)" fill="#333" fill-rule="evenodd"/>
    </g>
  </g>
</svg>
