<svg xmlns="http://www.w3.org/2000/svg" width="65.374" height="115.551" viewBox="0 0 65.374 115.551">
  <g id="point-of-service-svgrepo-com" transform="translate(-111.165)">
    <g id="Group_29806" data-name="Group 29806" transform="translate(111.165)">
      <g id="Group_29805" data-name="Group 29805">
        <path id="Path_13269" data-name="Path 13269" d="M168.941,5.79h-.34A7.612,7.612,0,0,0,161.221,0H126.483a7.612,7.612,0,0,0-7.38,5.79h-.34a7.608,7.608,0,0,0-7.6,7.6V48.905a32.627,32.627,0,0,0,1.677,10.337l.691,2.072a29.014,29.014,0,0,1,1.492,9.192v37.447a7.608,7.608,0,0,0,7.6,7.6h42.457a7.607,7.607,0,0,0,7.6-7.6V70.506a29.013,29.013,0,0,1,1.492-9.192l.691-2.072a32.627,32.627,0,0,0,1.677-10.337V13.389A7.607,7.607,0,0,0,168.941,5.79ZM122.5,7.61s0-.008,0-.012,0,0,0-.006a3.985,3.985,0,0,1,3.98-3.975h34.738a3.985,3.985,0,0,1,3.98,3.975s0,0,0,.006,0,.008,0,.012V46.2a3.985,3.985,0,0,1-3.98,3.98H126.483a3.985,3.985,0,0,1-3.98-3.98Zm50.418,41.295a29.014,29.014,0,0,1-1.492,9.192l-.691,2.072a32.627,32.627,0,0,0-1.677,10.337v37.446a3.985,3.985,0,0,1-3.98,3.98H122.624a3.985,3.985,0,0,1-3.98-3.98V70.506a32.627,32.627,0,0,0-1.677-10.337l-.691-2.072a29.014,29.014,0,0,1-1.492-9.192V13.389a3.985,3.985,0,0,1,3.98-3.98h.121V46.2a7.608,7.608,0,0,0,7.6,7.6h34.738a7.608,7.608,0,0,0,7.6-7.6V9.408h.121a3.985,3.985,0,0,1,3.98,3.98V48.905Z" transform="translate(-111.165)" fill="#b9db6b"/>
      </g>
    </g>
    <g id="Group_29808" data-name="Group 29808" transform="translate(126.604 15.439)">
      <g id="Group_29807" data-name="Group 29807">
        <path id="Path_13270" data-name="Path 13270" d="M210.331,68.409H183.313a3.743,3.743,0,0,0-3.739,3.739V87.587a3.743,3.743,0,0,0,3.739,3.739h27.018a3.743,3.743,0,0,0,3.739-3.739V72.148A3.743,3.743,0,0,0,210.331,68.409Zm.121,19.178a.12.12,0,0,1-.121.121H183.313a.12.12,0,0,1-.121-.121V72.148a.12.12,0,0,1,.121-.121h27.018a.12.12,0,0,1,.121.121V87.587Z" transform="translate(-179.574 -68.409)" fill="#b9db6b"/>
      </g>
    </g>
    <g id="Group_29810" data-name="Group 29810" transform="translate(126.604 42.457)">
      <g id="Group_29809" data-name="Group 29809">
        <path id="Path_13271" data-name="Path 13271" d="M183.313,188.125h-1.93a1.809,1.809,0,0,0,0,3.619h1.93a1.809,1.809,0,0,0,0-3.619Z" transform="translate(-179.574 -188.125)" fill="#b9db6b"/>
      </g>
    </g>
    <g id="Group_29812" data-name="Group 29812" transform="translate(136.253 42.457)">
      <g id="Group_29811" data-name="Group 29811" transform="translate(0)">
        <path id="Path_13272" data-name="Path 13272" d="M226.069,188.125h-1.93a1.809,1.809,0,0,0,0,3.619h1.93a1.809,1.809,0,0,0,0-3.619Z" transform="translate(-222.33 -188.125)" fill="#b9db6b"/>
      </g>
    </g>
    <g id="Group_29814" data-name="Group 29814" transform="translate(145.903 42.457)">
      <g id="Group_29813" data-name="Group 29813">
        <path id="Path_13273" data-name="Path 13273" d="M268.824,188.125h-1.93a1.809,1.809,0,0,0,0,3.619h1.93a1.809,1.809,0,0,0,0-3.619Z" transform="translate(-265.085 -188.125)" fill="#b9db6b"/>
      </g>
    </g>
    <g id="Group_29816" data-name="Group 29816" transform="translate(155.552 42.457)">
      <g id="Group_29815" data-name="Group 29815" transform="translate(0)">
        <path id="Path_13274" data-name="Path 13274" d="M311.58,188.125h-1.93a1.809,1.809,0,0,0,0,3.619h1.93a1.809,1.809,0,0,0,0-3.619Z" transform="translate(-307.841 -188.125)" fill="#b9db6b"/>
      </g>
    </g>
    <g id="Group_29818" data-name="Group 29818" transform="translate(126.604 7.72)">
      <g id="Group_29817" data-name="Group 29817">
        <path id="Path_13275" data-name="Path 13275" d="M212.261,34.205H181.383a1.809,1.809,0,0,0,0,3.619h30.878a1.809,1.809,0,1,0,0-3.619Z" transform="translate(-179.574 -34.205)" fill="#b9db6b"/>
      </g>
    </g>
    <g id="Group_29820" data-name="Group 29820" transform="translate(126.604 104.213)">
      <g id="Group_29819" data-name="Group 29819">
        <path id="Path_13276" data-name="Path 13276" d="M212.261,461.762H181.383a1.809,1.809,0,0,0,0,3.619h30.878a1.809,1.809,0,1,0,0-3.619Z" transform="translate(-179.574 -461.762)" fill="#b9db6b"/>
      </g>
    </g>
    <g id="Group_29822" data-name="Group 29822" transform="translate(138.183 57.896)">
      <g id="Group_29821" data-name="Group 29821">
        <path id="Path_13277" data-name="Path 13277" d="M238.48,256.534h-3.86a3.743,3.743,0,0,0-3.739,3.739v3.86a3.743,3.743,0,0,0,3.739,3.739h3.86a3.743,3.743,0,0,0,3.739-3.739v-3.86A3.743,3.743,0,0,0,238.48,256.534Zm.121,7.6a.12.12,0,0,1-.12.121h-3.86a.12.12,0,0,1-.121-.121v-3.86a.12.12,0,0,1,.121-.121h3.86a.12.12,0,0,1,.12.121Z" transform="translate(-230.881 -256.534)" fill="#b9db6b"/>
      </g>
    </g>
    <g id="Group_29824" data-name="Group 29824" transform="translate(153.622 57.896)">
      <g id="Group_29823" data-name="Group 29823" transform="translate(0)">
        <path id="Path_13278" data-name="Path 13278" d="M306.889,256.534h-3.86a3.743,3.743,0,0,0-3.739,3.739v3.86a3.743,3.743,0,0,0,3.739,3.739h3.86a3.743,3.743,0,0,0,3.739-3.739v-3.86A3.743,3.743,0,0,0,306.889,256.534Zm.121,7.6a.12.12,0,0,1-.121.121h-3.86a.12.12,0,0,1-.121-.121v-3.86a.121.121,0,0,1,.121-.121h3.86a.121.121,0,0,1,.121.121Z" transform="translate(-299.29 -256.534)" fill="#b9db6b"/>
      </g>
    </g>
    <g id="Group_29826" data-name="Group 29826" transform="translate(122.744 57.896)">
      <g id="Group_29825" data-name="Group 29825">
        <path id="Path_13279" data-name="Path 13279" d="M170.071,256.534h-3.86a3.743,3.743,0,0,0-3.739,3.739v3.86a3.743,3.743,0,0,0,3.739,3.739h3.86a3.743,3.743,0,0,0,3.739-3.739v-3.86A3.743,3.743,0,0,0,170.071,256.534Zm.121,7.6a.12.12,0,0,1-.121.121h-3.86a.12.12,0,0,1-.121-.121v-3.86a.121.121,0,0,1,.121-.121h3.86a.12.12,0,0,1,.121.121Z" transform="translate(-162.472 -256.534)" fill="#b9db6b"/>
      </g>
    </g>
    <g id="Group_29828" data-name="Group 29828" transform="translate(138.183 73.335)">
      <g id="Group_29827" data-name="Group 29827">
        <path id="Path_13280" data-name="Path 13280" d="M238.48,324.944h-3.86a3.743,3.743,0,0,0-3.739,3.739v3.86a3.743,3.743,0,0,0,3.739,3.739h3.86a3.743,3.743,0,0,0,3.739-3.739v-3.86A3.743,3.743,0,0,0,238.48,324.944Zm.121,7.6a.121.121,0,0,1-.12.121h-3.86a.12.12,0,0,1-.121-.121v-3.86a.12.12,0,0,1,.121-.12h3.86a.12.12,0,0,1,.12.12Z" transform="translate(-230.881 -324.944)" fill="#b9db6b"/>
      </g>
    </g>
    <g id="Group_29830" data-name="Group 29830" transform="translate(153.622 73.335)">
      <g id="Group_29829" data-name="Group 29829" transform="translate(0)">
        <path id="Path_13281" data-name="Path 13281" d="M306.889,324.944h-3.86a3.743,3.743,0,0,0-3.739,3.739v3.86a3.743,3.743,0,0,0,3.739,3.739h3.86a3.743,3.743,0,0,0,3.739-3.739v-3.86A3.743,3.743,0,0,0,306.889,324.944Zm.121,7.6a.121.121,0,0,1-.121.121h-3.86a.121.121,0,0,1-.121-.121v-3.86a.12.12,0,0,1,.121-.12h3.86a.12.12,0,0,1,.121.12Z" transform="translate(-299.29 -324.944)" fill="#b9db6b"/>
      </g>
    </g>
    <g id="Group_29832" data-name="Group 29832" transform="translate(122.744 73.335)">
      <g id="Group_29831" data-name="Group 29831">
        <path id="Path_13282" data-name="Path 13282" d="M170.071,324.944h-3.86a3.743,3.743,0,0,0-3.739,3.739v3.86a3.743,3.743,0,0,0,3.739,3.739h3.86a3.743,3.743,0,0,0,3.739-3.739v-3.86A3.743,3.743,0,0,0,170.071,324.944Zm.121,7.6a.12.12,0,0,1-.121.121h-3.86a.121.121,0,0,1-.121-.121v-3.86a.12.12,0,0,1,.121-.12h3.86a.12.12,0,0,1,.121.12Z" transform="translate(-162.472 -324.944)" fill="#b9db6b"/>
      </g>
    </g>
    <g id="Group_29834" data-name="Group 29834" transform="translate(138.183 88.774)">
      <g id="Group_29833" data-name="Group 29833">
        <path id="Path_13283" data-name="Path 13283" d="M238.48,393.353h-3.86a3.743,3.743,0,0,0-3.739,3.739v3.86a3.743,3.743,0,0,0,3.739,3.739h3.86a3.743,3.743,0,0,0,3.739-3.739v-3.86A3.743,3.743,0,0,0,238.48,393.353Zm.121,7.6a.12.12,0,0,1-.12.121h-3.86a.12.12,0,0,1-.121-.121v-3.86a.12.12,0,0,1,.121-.12h3.86a.12.12,0,0,1,.12.12Z" transform="translate(-230.881 -393.353)" fill="#b9db6b"/>
      </g>
    </g>
    <g id="Group_29836" data-name="Group 29836" transform="translate(153.622 88.774)">
      <g id="Group_29835" data-name="Group 29835" transform="translate(0)">
        <path id="Path_13284" data-name="Path 13284" d="M306.889,393.353h-3.86a3.743,3.743,0,0,0-3.739,3.739v3.86a3.743,3.743,0,0,0,3.739,3.739h3.86a3.743,3.743,0,0,0,3.739-3.739v-3.86A3.743,3.743,0,0,0,306.889,393.353Zm.121,7.6a.12.12,0,0,1-.121.121h-3.86a.12.12,0,0,1-.121-.121v-3.86a.12.12,0,0,1,.121-.12h3.86a.12.12,0,0,1,.121.12Z" transform="translate(-299.29 -393.353)" fill="#b9db6b"/>
      </g>
    </g>
    <g id="Group_29838" data-name="Group 29838" transform="translate(122.744 88.774)">
      <g id="Group_29837" data-name="Group 29837">
        <path id="Path_13285" data-name="Path 13285" d="M170.071,393.353h-3.86a3.743,3.743,0,0,0-3.739,3.739v3.86a3.743,3.743,0,0,0,3.739,3.739h3.86a3.743,3.743,0,0,0,3.739-3.739v-3.86A3.743,3.743,0,0,0,170.071,393.353Zm.121,7.6a.12.12,0,0,1-.121.121h-3.86a.12.12,0,0,1-.121-.121v-3.86a.12.12,0,0,1,.121-.12h3.86a.12.12,0,0,1,.121.12Z" transform="translate(-162.472 -393.353)" fill="#b9db6b"/>
      </g>
    </g>
  </g>
</svg>
