<svg xmlns="http://www.w3.org/2000/svg" width="70.687" height="70.687" viewBox="0 0 70.687 70.687">
  <path id="users-svgrepo-com_3_" data-name="users-svgrepo-com (3)" d="M30.275,9.069A14.137,14.137,0,1,0,44.412,23.206,14.137,14.137,0,0,0,30.275,9.069ZM9.069,23.206A21.206,21.206,0,1,1,30.275,44.412,21.206,21.206,0,0,1,9.069,23.206Zm45.339-15a3.534,3.534,0,0,1,5,0,21.206,21.206,0,0,1,0,29.993,3.536,3.536,0,0,1-5-5,14.137,14.137,0,0,0,0-19.99,3.534,3.534,0,0,1,0-5Zm2.481,45.947a3.534,3.534,0,0,1,4.284-2.569,14.015,14.015,0,0,1,9.373,7.592,22.643,22.643,0,0,1,2.142,9.974,3.534,3.534,0,0,1-7.069,0,15.673,15.673,0,0,0-1.393-6.814,6.983,6.983,0,0,0-4.768-3.895,3.534,3.534,0,0,1-2.569-4.284ZM17.9,58.55c-4.453,0-8.836,4.287-8.836,10.6a3.534,3.534,0,0,1-7.069,0c0-9.3,6.691-17.672,15.9-17.672h24.74c9.214,0,15.9,8.369,15.9,17.672a3.534,3.534,0,0,1-7.069,0c0-6.316-4.383-10.6-8.836-10.6Z" transform="translate(-2 -2)" fill="#b9db6b"/>
</svg>
